# xmcd
#
# Track frame offsets:
#	157
#	13282
#	29200
#	41800
#	61122
#	72177
#	87385
#	104840
#	122382
#	135925
#	151085
#	163232
#	173517
#	184900
#	194355
#	211077
#
# Disc length: 2857 seconds
#
# Revision: 0
# Processed by: cddbd v1.5.2PL0 Copyright (c) Steve Scherf et al.
# Submitted via: audiograbber 1.83.01
#
DISCID=dd0b2710
DTITLE=Rose Maddox - $35 and a Dream
DYEAR=1994
DGENRE=Country
TTITLE0=Fried Potatoes
TTITLE1=I Wonder Where You Are Tonight
TTITLE2=Falling for You
TTITLE3=Sin City
TTITLE4=We're Gonna Let the Good Times Roll
TTITLE5=Blood Stained Hands
TTITLE6=Blue Ridge Mountain Blues
TTITLE7=$35 and a Dream
TTITLE8=Cajun Lady
TTITLE9=Where No One Stands Alone
TTITLE10=Place Where Love Comes From
TTITLE11=Old Train
TTITLE12=Dusty Memories
TTITLE13=I Wonder Where I'll Find You at Tonight
TTITLE14=Tonight I'm on Stage
TTITLE15=A Comment from Johnny Cash
EXTD=
EXTT0=
EXTT1=
EXTT2=
EXTT3=
EXTT4=
EXTT5=
EXTT6=
EXTT7=
EXTT8=
EXTT9=
EXTT10=
EXTT11=
EXTT12=
EXTT13=
EXTT14=
EXTT15=
PLAYORDER=
